<?xml version="1.0" standalone="no"?>
<!DOCTYPE svg PUBLIC "-//W3C//DTD SVG 20010904//EN"
 "http://www.w3.org/TR/2001/REC-SVG-20010904/DTD/svg10.dtd">
<svg version="1.0" xmlns="http://www.w3.org/2000/svg"
 width="2000.000000pt" height="1078.000000pt" viewBox="0 0 2000.000000 1078.000000"
 preserveAspectRatio="xMidYMid meet">

<g transform="translate(0.000000,1078.000000) scale(0.100000,-0.100000)"
fill="#000000" stroke="none">
<path d="M13930 9109 c-187 -25 -429 -56 -1067 -135 l-703 -87 -152 -156
c-224 -228 -490 -502 -863 -886 -181 -187 -422 -434 -535 -550 -291 -298 -355
-364 -358 -378 -1 -7 18 -23 43 -37 44 -24 45 -25 45 -75 l-1 -50 -99 -58
-100 -57 0 -70 c0 -63 2 -71 25 -86 22 -14 25 -23 25 -78 l0 -61 -100 -59
-101 -58 3 -67 3 -66 105 -62 c58 -34 124 -73 148 -87 l42 -26 -2 -520 -3
-521 -914 -528 c-996 -574 -1014 -585 -1078 -708 -71 -134 -83 -391 -24 -515
25 -53 42 -79 59 -93 10 -8 6 -14 -18 -28 -16 -10 -30 -22 -30 -28 0 -14 9
-11 47 12 21 13 38 18 44 12 5 -5 -11 -20 -43 -38 -28 -17 -53 -36 -56 -44 -3
-8 23 1 63 23 40 23 71 34 76 29 5 -5 -21 -26 -66 -52 -41 -23 -75 -47 -75
-52 0 -14 6 -12 89 36 43 25 83 45 89 45 28 0 7 -18 -73 -63 -79 -45 -102 -63
-93 -72 3 -3 91 45 173 95 18 11 36 16 44 11 8 -5 -21 -27 -88 -66 -95 -54
-118 -71 -109 -80 2 -2 55 25 117 60 62 36 117 65 122 65 28 0 -4 -26 -101
-81 -61 -34 -113 -66 -116 -70 -13 -22 28 -4 131 56 101 59 156 80 141 56 -3
-5 -60 -39 -126 -77 -105 -59 -139 -84 -112 -84 4 0 65 34 137 74 71 41 133
72 139 69 12 -8 -9 -23 -136 -94 -60 -34 -108 -65 -108 -71 0 -14 13 -8 150
71 115 67 150 81 150 63 0 -4 -58 -41 -130 -82 -114 -65 -149 -90 -122 -90 4
0 66 34 137 75 72 41 137 75 145 75 25 -1 -20 -32 -140 -100 -60 -34 -107 -66
-104 -71 3 -6 19 -1 37 9 153 92 250 143 259 134 6 -6 -31 -32 -103 -73 -117
-66 -163 -98 -141 -99 7 0 71 34 142 75 71 41 134 75 140 75 28 0 -1 -22 -120
-90 -71 -41 -125 -79 -121 -83 5 -5 57 21 117 56 145 86 172 99 179 88 3 -6
-16 -22 -42 -37 -141 -80 -216 -128 -205 -132 6 -2 72 31 146 73 74 42 140 74
146 70 7 -4 -42 -37 -112 -77 -125 -71 -163 -98 -140 -98 7 0 72 34 143 75
120 69 169 90 154 66 -3 -5 -61 -42 -130 -81 -108 -62 -144 -90 -119 -90 4 0
69 36 146 81 84 49 144 77 149 72 6 -6 -46 -41 -128 -88 -76 -44 -131 -81
-123 -83 9 -1 74 31 145 73 72 41 136 75 143 75 31 0 2 -22 -118 -91 -71 -41
-130 -78 -130 -83 0 -13 25 -1 156 74 67 39 130 70 140 70 18 -1 18 -1 -1 -15
-10 -9 -72 -45 -137 -82 -64 -36 -115 -70 -112 -75 6 -9 11 -7 167 84 65 37
122 68 127 68 30 0 -4 -26 -115 -91 -69 -39 -128 -76 -131 -80 -14 -23 31 -3
150 66 118 69 166 90 152 66 -4 -5 -54 -36 -114 -70 -126 -70 -149 -87 -140
-96 4 -4 33 9 65 28 32 19 76 45 98 57 22 12 58 33 80 46 23 13 46 20 52 16 8
-5 -29 -32 -100 -72 -149 -85 -158 -91 -152 -100 3 -5 69 28 146 72 86 49 144
77 150 71 5 -5 -42 -38 -121 -83 -115 -65 -148 -90 -122 -90 4 0 66 34 137 75
123 71 155 85 155 68 0 -5 -58 -41 -129 -82 -72 -41 -128 -78 -125 -83 5 -8
67 24 213 109 46 27 78 40 83 35 6 -6 -40 -38 -121 -83 -120 -68 -148 -89
-120 -89 6 0 69 34 140 75 71 41 133 75 139 75 30 0 -3 -26 -115 -90 -106 -61
-145 -90 -119 -90 3 0 64 34 134 75 147 85 144 83 149 70 2 -5 -51 -42 -119
-81 -109 -62 -134 -81 -114 -85 3 -1 66 33 140 76 82 47 139 74 145 68 5 -5
-46 -40 -128 -88 -75 -43 -131 -81 -125 -83 7 -2 73 30 146 72 73 42 138 76
144 76 29 0 4 -19 -101 -78 -128 -72 -153 -89 -144 -98 3 -4 70 30 148 75 89
52 145 79 151 73 6 -6 -42 -39 -128 -88 -75 -44 -130 -80 -121 -82 8 -2 74 31
145 72 72 42 135 76 141 76 31 0 -1 -25 -119 -91 -118 -67 -148 -89 -120 -89
8 0 137 72 230 129 35 21 83 30 65 12 -6 -6 -68 -43 -138 -84 -71 -41 -124
-78 -119 -81 6 -3 66 26 134 65 164 94 156 90 163 80 3 -6 -27 -29 -67 -52
-152 -87 -191 -113 -180 -117 6 -2 71 31 145 72 73 42 139 76 147 76 23 0 0
-17 -116 -85 -145 -85 -140 -82 -132 -90 6 -6 105 47 255 137 19 11 34 15 38
9 3 -6 -53 -45 -125 -87 -71 -42 -128 -80 -125 -84 3 -5 69 28 146 72 86 49
144 77 150 71 5 -5 -42 -38 -121 -83 -115 -65 -148 -90 -122 -90 4 0 66 34
137 75 123 71 155 85 155 68 0 -5 -59 -41 -130 -82 -71 -40 -127 -77 -124 -82
5 -9 40 8 203 103 52 31 87 46 93 40 6 -6 -43 -40 -127 -88 -75 -44 -130 -80
-121 -82 8 -2 74 31 146 72 73 42 136 76 141 76 29 0 -5 -27 -116 -90 -118
-68 -149 -90 -126 -90 6 0 73 36 148 79 120 70 165 89 148 62 -2 -5 -61 -41
-130 -80 -69 -40 -122 -77 -119 -82 4 -6 14 -5 27 4 102 64 259 147 268 142 6
-5 -47 -41 -127 -88 -75 -45 -132 -83 -125 -85 6 -2 72 30 145 72 74 42 139
76 145 76 28 0 1 -21 -119 -90 -114 -66 -148 -90 -123 -90 4 0 67 34 140 76
73 42 140 74 150 72 11 -2 -35 -34 -120 -82 -75 -43 -134 -82 -131 -87 3 -5 8
-8 12 -5 4 2 67 38 140 81 88 50 137 74 144 67 6 -6 -35 -35 -121 -83 -118
-67 -148 -89 -122 -89 5 0 69 34 142 75 73 42 140 74 148 73 9 -2 -29 -30 -84
-62 -55 -32 -117 -69 -138 -81 -22 -13 -34 -25 -29 -29 6 -3 72 30 148 73 76
43 144 77 151 74 14 -5 -12 -22 -187 -123 -41 -24 -69 -45 -62 -48 6 -2 73 31
147 74 80 45 140 73 145 68 5 -5 -45 -40 -121 -83 -71 -41 -129 -79 -129 -84
0 -13 15 -6 150 73 71 41 132 70 144 68 15 -2 -20 -27 -116 -82 -76 -44 -135
-83 -132 -88 6 -9 8 -8 167 84 74 43 123 66 129 60 5 -5 -41 -37 -121 -83
-120 -68 -148 -89 -121 -89 6 0 68 34 139 75 71 41 134 75 140 75 31 0 -1 -25
-119 -91 -71 -41 -125 -78 -121 -82 5 -5 53 17 107 49 173 100 182 105 188 95
6 -10 -4 -17 -152 -101 -51 -29 -95 -57 -98 -61 -13 -22 30 -3 149 66 77 45
137 73 146 70 17 -7 15 -8 -147 -99 -56 -32 -105 -62 -108 -67 -14 -23 31 -3
150 66 118 69 166 90 151 66 -3 -5 -61 -42 -130 -81 -106 -62 -144 -90 -120
-90 3 0 69 36 147 81 88 50 144 77 150 71 6 -6 -43 -39 -129 -88 -81 -46 -131
-80 -121 -82 10 -2 50 16 90 41 119 71 185 107 197 107 29 0 1 -22 -119 -90
-113 -65 -148 -90 -123 -90 3 0 66 34 140 76 73 41 141 74 150 72 16 -3 -16
-24 -220 -143 -22 -13 -35 -25 -30 -28 5 -3 61 23 124 59 157 91 167 95 174
85 3 -5 -51 -42 -120 -82 -69 -40 -128 -76 -131 -81 -13 -20 26 -3 147 67 120
69 169 90 154 66 -3 -6 -54 -37 -113 -71 -125 -72 -148 -87 -139 -96 4 -4 48
18 99 48 168 99 187 108 193 98 6 -10 2 -13 -150 -101 -60 -35 -103 -65 -95
-67 9 -1 76 32 149 74 82 48 136 73 142 67 5 -5 -40 -37 -121 -83 -114 -65
-148 -90 -123 -90 4 0 66 34 139 75 73 41 140 75 150 75 18 -1 18 -1 0 -15
-11 -8 -73 -45 -138 -81 -64 -37 -115 -71 -112 -75 6 -10 0 -13 162 80 68 39
128 71 133 71 29 0 -6 -27 -118 -91 -149 -84 -138 -77 -129 -86 7 -8 77 29
211 109 76 46 105 57 105 41 0 -5 -63 -43 -140 -86 -77 -44 -137 -83 -134 -88
3 -6 22 -1 42 12 171 101 264 150 279 147 18 -3 4 -13 -195 -129 -51 -30 -87
-55 -78 -57 8 -2 77 32 153 76 181 104 181 104 187 93 4 -5 -64 -49 -149 -97
-85 -48 -155 -92 -155 -97 0 -14 24 -3 202 99 92 53 172 92 179 89 6 -4 -28
-30 -81 -61 -51 -30 -93 -54 -95 -54 -1 0 -40 -22 -86 -50 -46 -27 -76 -50
-65 -50 10 0 101 47 202 105 167 96 226 122 209 95 -4 -6 -25 -20 -48 -31 -96
-49 -330 -193 -320 -196 7 -3 107 50 223 117 116 67 220 120 230 118 11 -2
-65 -52 -195 -127 -118 -69 -212 -128 -209 -133 3 -4 24 3 47 16 23 13 87 50
142 81 55 32 142 82 193 112 51 30 101 53 113 51 13 -2 -60 -49 -215 -138
-129 -74 -227 -137 -219 -138 8 -2 129 62 269 142 140 81 269 149 287 153 17
3 30 4 27 1 -3 -3 -113 -67 -245 -143 -293 -168 -293 -167 -277 -173 9 -3 550
299 588 329 14 12 110 41 98 30 -5 -4 -133 -79 -284 -166 -384 -220 -358 -205
-334 -205 12 0 59 22 105 48 46 27 305 176 574 332 794 458 1239 714 1595 920
184 106 418 241 520 300 102 59 325 187 495 285 171 98 409 236 530 305 121
70 236 137 255 147 19 11 240 139 490 283 250 145 570 329 710 410 140 81 329
190 420 242 575 332 890 513 920 530 131 75 210 123 210 130 0 13 -12 9 -60
-17 l-45 -25 40 38 c43 41 105 163 124 244 24 101 5 282 -39 373 -37 76 -104
127 -380 286 -507 292 -638 368 -1090 629 -250 145 -471 272 -490 283 -19 10
-36 20 -38 22 -2 1 18 15 43 29 40 24 45 31 45 64 0 31 5 40 30 54 29 16 30
20 30 85 l-1 68 -114 65 -115 65 0 45 0 45 90 53 90 53 0 59 c0 69 -3 73 -105
131 l-75 43 0 57 c0 53 3 60 45 107 25 27 45 54 45 59 0 9 -73 52 -970 573
-239 140 -576 336 -749 437 -345 201 -319 191 -461 172z m319 -128 c102 -60
463 -269 801 -466 338 -197 701 -408 805 -469 l190 -111 -40 -7 c-97 -17 -61
-36 -919 464 -1119 650 -1156 672 -1156 680 0 4 21 9 48 11 26 2 56 4 66 5 10
1 103 -47 205 -107z m125 -212 c276 -161 587 -342 691 -402 105 -61 222 -129
260 -152 39 -23 170 -99 292 -170 122 -71 221 -131 219 -133 -3 -2 -271 -37
-597 -78 l-592 -73 -275 159 c-150 88 -278 158 -283 154 -24 -14 -22 -16 161
-122 219 -126 331 -194 328 -197 -4 -5 -330 -45 -362 -45 -14 0 -49 14 -78 31
-29 18 -219 128 -423 247 -1612 937 -1493 866 -1460 874 17 4 232 33 478 63
l448 55 232 -135 c137 -80 235 -131 240 -126 5 5 7 13 3 19 -3 5 -98 62 -211
128 -113 65 -202 120 -198 121 4 1 100 14 212 28 l204 26 211 -123 c116 -67
317 -184 446 -259 153 -89 237 -133 242 -126 4 6 5 14 2 18 -2 4 -192 116
-421 250 -451 264 -440 254 -314 258 40 1 85 -23 545 -290z m-1954 -67 c118
-69 377 -219 575 -334 198 -116 515 -300 705 -411 190 -110 373 -217 407 -237
l63 -36 -34 -33 -34 -33 -94 55 c-226 134 -443 259 -452 260 -5 1 -11 -5 -13
-13 -2 -10 26 -32 84 -65 49 -27 170 -97 269 -156 l182 -106 -30 -34 c-28 -33
-152 -160 -541 -556 l-178 -182 -210 122 c-115 67 -209 125 -209 128 0 4 35
27 78 52 93 54 132 94 166 167 25 52 26 63 26 233 0 98 3 177 8 175 4 -1 42
-22 85 -46 68 -39 97 -46 97 -24 0 4 -43 32 -95 62 l-95 54 0 159 c0 118 -4
165 -14 186 -20 38 -228 165 -272 165 -21 0 -76 -25 -166 -77 -74 -42 -140
-77 -147 -77 -13 0 -698 394 -718 414 -9 8 27 50 145 172 138 141 159 160 177
151 11 -6 117 -66 235 -135z m-234 -418 c195 -113 352 -210 349 -214 -3 -5
-78 -50 -166 -100 -88 -51 -175 -107 -192 -125 -57 -58 -81 -120 -85 -212 -2
-46 -7 -83 -10 -83 -3 0 -57 30 -120 66 -90 53 -116 64 -123 53 -9 -15 1 -22
158 -112 l93 -52 0 -263 c0 -180 4 -270 12 -285 13 -26 25 -35 146 -109 100
-63 130 -69 188 -42 33 16 35 16 82 -15 59 -38 116 -41 156 -10 25 20 26 25
24 96 l-3 76 80 48 c44 26 83 48 87 49 12 0 432 -247 435 -256 1 -5 -134 -148
-301 -319 l-302 -309 -180 104 c-98 57 -226 131 -284 165 -272 159 -439 255
-443 255 -3 0 -7 -6 -10 -14 -4 -9 42 -41 146 -102 84 -48 269 -156 412 -239
143 -84 275 -160 293 -169 17 -9 32 -22 32 -29 0 -13 -51 -67 -63 -67 -4 0
-125 69 -269 153 -145 85 -587 342 -983 572 -396 230 -725 423 -732 429 -13
12 -1 24 356 391 394 403 807 829 826 851 11 12 24 23 28 23 5 1 168 -92 363
-205z m801 -106 c60 -38 64 -43 47 -55 -10 -7 -24 -13 -31 -13 -21 0 -154 91
-148 101 13 21 68 7 132 -33z m-95 -43 c40 -25 72 -48 71 -51 -1 -3 -127 -78
-280 -166 -153 -88 -291 -172 -306 -186 l-28 -27 -42 24 c-78 45 -117 71 -117
80 0 4 8 15 18 24 25 23 584 346 599 346 7 1 46 -19 85 -44z m245 -65 c10 -19
13 -105 11 -375 -4 -466 13 -432 -297 -613 -203 -118 -206 -121 -190 -206 11
-58 5 -73 -32 -81 -44 -10 -66 2 -83 45 -19 48 -34 50 -101 10 -57 -34 -81
-37 -107 -13 -17 15 -18 40 -18 380 l0 364 25 48 c13 27 37 61 52 76 15 15
172 110 348 211 343 198 365 207 392 154z m2903 -178 c0 -5 -10 -18 -22 -30
-25 -22 -43 -25 -1308 -187 l-515 -66 -185 -187 c-171 -174 -393 -401 -1285
-1314 -227 -233 -346 -348 -359 -348 -15 0 12 33 105 128 69 70 204 208 300
307 96 99 246 254 334 345 329 338 515 530 685 705 97 99 230 236 296 304
l121 123 899 113 c994 125 934 118 934 107z m-3789 -168 l78 -45 -20 -42 c-10
-23 -19 -50 -19 -59 0 -32 -21 -29 -93 15 -64 39 -72 47 -71 73 2 32 29 104
40 104 4 0 42 -20 85 -46z m3835 -95 c30 -18 52 -35 47 -39 -10 -10 -143 -88
-1213 -705 -465 -268 -928 -536 -1030 -595 -102 -59 -302 -175 -445 -257 -143
-83 -449 -260 -680 -393 -231 -134 -425 -243 -430 -243 -6 0 -431 242 -945
538 -514 296 -995 572 -1067 614 -73 42 -133 78 -133 81 0 3 34 24 75 47 72
40 75 41 75 19 0 -19 42 -47 268 -179 147 -85 443 -257 657 -382 215 -125 556
-324 758 -441 l368 -214 937 541 c515 297 1332 769 1815 1047 l877 506 0 43
c0 24 2 43 5 43 3 0 30 -14 61 -31z m-292 -8 c3 -5 -166 -108 -377 -229 -364
-210 -863 -498 -1722 -994 -214 -124 -466 -269 -560 -323 -559 -322 -535 -310
-535 -284 0 6 91 104 203 217 112 114 385 394 607 622 223 228 490 502 595
607 l190 193 430 55 c237 31 554 72 705 91 151 19 300 39 330 43 77 12 128 13
134 2z m-3588 -73 l74 -43 0 -202 c0 -112 -3 -203 -7 -203 -5 0 -39 20 -78 44
l-70 43 -3 201 c-1 111 1 202 4 202 4 0 40 -19 80 -42z m3954 -25 c0 -31 -5
-41 -28 -54 -15 -9 -391 -226 -837 -483 -445 -257 -850 -492 -900 -521 -49
-29 -281 -163 -515 -298 -234 -134 -495 -285 -580 -334 -85 -49 -229 -133
-320 -185 -91 -52 -267 -154 -392 -226 -125 -73 -230 -132 -233 -132 -3 0 -5
17 -5 38 l1 37 177 101 c97 56 247 142 332 191 798 460 1219 704 1295 748 92
54 319 185 995 575 212 122 441 255 510 295 69 40 202 116 295 170 94 53 174
101 180 106 18 17 25 9 25 -28z m-326 -378 l-1 -78 -56 -33 -57 -33 0 87 0 87
48 27 c26 15 52 25 57 24 6 -2 10 -36 9 -81z m274 42 c40 -23 73 -46 73 -52 1
-5 -92 -64 -207 -131 -191 -110 -423 -244 -1854 -1069 -256 -148 -763 -440
-1127 -650 l-662 -382 -133 77 c-73 42 -405 233 -738 425 -333 192 -690 398
-795 458 -104 60 -286 164 -402 231 -117 66 -213 123 -213 126 0 6 123 80 133
80 3 0 7 -10 9 -21 2 -17 232 -154 1093 -650 600 -346 1096 -628 1104 -629 11
0 3586 2057 3619 2083 7 6 12 35 12 78 0 38 3 69 8 68 4 0 40 -19 80 -42z
m-4913 -342 c226 -131 554 -322 730 -425 176 -102 393 -229 483 -280 89 -52
162 -97 162 -100 0 -3 -42 -46 -92 -97 l-93 -91 -134 80 c-97 58 -137 76 -145
68 -13 -13 -20 -7 134 -97 63 -36 116 -67 118 -69 7 -5 -32 -55 -50 -65 -15
-8 -38 1 -121 49 -56 33 -291 170 -522 304 -231 134 -631 368 -890 518 -258
150 -472 275 -474 276 -7 6 49 74 61 74 9 0 332 -187 1352 -782 211 -123 292
-165 297 -156 5 7 5 16 1 19 -4 3 -369 216 -812 474 -443 257 -807 469 -809
471 -3 3 37 47 88 98 l93 94 107 -63 c58 -34 291 -169 516 -300z m1017 250
c65 -38 68 -42 68 -78 l0 -39 -37 23 c-106 63 -123 79 -123 110 0 37 5 36 92
-16z m3438 -49 l0 -85 -54 -30 c-29 -17 -56 -31 -60 -31 -4 0 -6 37 -4 82 l3
82 55 33 c30 18 56 33 58 33 1 0 2 -38 2 -84z m568 18 c-3 -34 -8 -39 -98 -91
-52 -31 -637 -368 -1300 -750 -663 -383 -1320 -762 -1460 -843 -310 -179 -874
-504 -952 -549 l-58 -32 0 38 0 38 288 166 c158 92 566 328 907 524 341 196
661 381 710 410 50 29 416 240 815 470 399 230 817 472 930 537 113 65 209
118 213 118 5 0 7 -16 5 -36z m-755 -126 c-5 -90 -7 -93 -75 -129 l-38 -19 0
84 0 84 53 31 c28 17 55 31 58 31 4 0 5 -37 2 -82z m-183 -105 l0 -88 -60 -33
-60 -33 0 85 0 84 58 36 c31 19 58 36 60 36 1 0 2 -39 2 -87z m-4530 -218
c168 -97 337 -196 377 -219 l72 -41 1 -52 c0 -46 3 -53 19 -53 16 0 20 8 23
39 l3 38 265 -154 c757 -442 777 -453 820 -453 l40 0 0 -96 0 -96 -32 20 c-45
27 -1371 798 -1695 985 l-262 152 -1 73 0 74 33 -20 c17 -11 169 -99 337 -197z
m5448 131 c336 -194 997 -575 1352 -780 217 -126 414 -244 438 -263 63 -52
102 -125 102 -194 0 -95 -24 -145 -109 -229 -74 -73 -116 -98 -1446 -865 -754
-434 -1566 -902 -1805 -1040 -239 -139 -793 -458 -1230 -710 -437 -252 -847
-488 -910 -525 -414 -241 -601 -346 -663 -371 -252 -104 -598 -119 -821 -35
-36 14 -273 145 -528 292 -631 364 -1697 979 -1953 1127 -126 73 -227 139
-253 165 -112 112 -109 253 8 385 56 63 104 94 430 282 151 87 475 274 720
415 245 141 516 298 603 348 l157 91 0 -87 -1 -87 -467 -268 c-956 -548 -1258
-723 -1290 -745 -39 -28 -72 -89 -72 -132 0 -43 34 -104 72 -133 18 -13 596
-350 1283 -747 811 -470 1275 -732 1320 -748 210 -73 516 -69 712 10 33 13
201 106 374 205 173 100 613 353 979 563 366 210 769 442 895 515 267 153 692
398 1445 830 294 169 670 385 835 480 165 95 557 320 870 500 314 180 585 338
603 352 55 41 74 80 69 141 -7 93 -8 94 -600 437 l-537 310 0 33 c0 115 -132
200 -325 210 l-100 5 -217 126 c-120 69 -218 128 -218 131 0 8 123 80 138 80
7 0 70 -33 140 -74z m-1098 -21 l0 -85 -52 -27 c-29 -15 -56 -29 -60 -31 -5
-2 -8 34 -8 80 l0 84 53 31 c28 17 55 32 60 32 4 1 7 -37 7 -84z m-190 -108
l0 -83 -51 -29 c-28 -17 -53 -30 -57 -30 -3 0 -6 35 -7 78 0 56 4 82 14 90 18
16 84 55 94 56 4 1 7 -36 7 -82z m870 60 c0 -7 -61 -48 -135 -91 l-135 -79 0
-868 0 -868 -22 -15 c-27 -19 -64 -20 -98 -3 l-25 13 -5 826 -5 826 -202 -116
-202 -117 -3 -875 -3 -875 -38 -12 c-31 -11 -44 -10 -73 2 l-34 14 0 827 c0
736 -2 826 -15 820 -9 -3 -176 -98 -373 -212 -196 -113 -464 -268 -594 -343
l-237 -136 -1 -867 c0 -968 6 -898 -71 -898 -22 0 -49 5 -60 10 -19 10 -19 30
-19 835 0 454 -3 825 -6 825 -7 0 -238 -132 -349 -199 l-60 -36 -1 -863 c-1
-474 -4 -868 -7 -876 -8 -21 -72 -31 -107 -16 l-30 12 -2 829 -3 829 -120 -69
c-73 -42 -124 -65 -129 -60 -7 6 -7 12 0 18 5 5 124 75 264 156 140 81 343
198 450 260 107 62 281 162 385 222 189 109 320 185 885 511 162 93 491 283
730 421 239 138 438 251 443 251 4 0 7 -6 7 -13z m169 -61 c53 -30 138 -79
190 -110 93 -55 94 -56 66 -66 -42 -16 -104 -68 -122 -103 -12 -24 -14 -52
-11 -133 l5 -103 -26 -11 c-36 -15 -77 -52 -101 -92 -16 -26 -20 -50 -20 -119
0 -79 2 -89 29 -127 40 -54 149 -108 249 -122 162 -22 353 40 412 135 16 25
20 50 20 113 0 44 -4 92 -9 105 -9 22 -6 26 31 43 22 10 57 37 78 61 20 24 40
43 44 43 3 0 27 -13 53 -29 27 -15 208 -121 403 -233 195 -113 372 -216 392
-228 l38 -22 9 24 c9 22 10 22 10 -7 1 -27 9 -35 62 -64 80 -44 129 -88 129
-115 0 -42 -56 -86 -245 -194 -219 -125 -752 -431 -935 -537 -69 -40 -249
-143 -400 -230 -349 -200 -1482 -851 -1745 -1003 -110 -63 -306 -176 -435
-250 -129 -74 -354 -203 -500 -287 -146 -84 -503 -290 -795 -457 -291 -168
-622 -358 -733 -422 -299 -173 -380 -198 -622 -198 -123 0 -160 4 -241 25
-126 33 -120 30 -614 317 -156 91 -1545 895 -1860 1077 -174 100 -255 163
-255 198 0 25 47 67 130 115 41 23 76 44 78 46 4 3 10 31 13 64 1 18 3 15 8
-13 l6 -38 290 167 c160 92 355 205 435 250 l145 83 5 -46 5 -45 283 -163
c156 -90 284 -166 285 -171 1 -4 -24 -16 -55 -26 -69 -23 -142 -85 -158 -134
-19 -55 -9 -177 16 -211 81 -109 281 -163 454 -123 54 12 56 11 105 -18 82
-50 166 -73 269 -74 106 0 163 18 201 64 16 18 31 28 40 24 14 -5 281 -158
685 -391 69 -40 199 -115 290 -167 91 -52 225 -130 298 -172 79 -46 140 -75
149 -72 9 4 57 30 107 60 91 53 253 147 761 438 149 86 452 260 675 389 223
128 488 281 590 339 102 59 325 187 495 285 436 251 988 569 1197 688 l178
102 0 80 0 80 -317 186 -318 186 -3 697 c-1 383 1 696 5 696 4 0 50 -24 102
-54z m-5324 -278 c344 -198 786 -452 1053 -606 59 -35 62 -38 62 -75 l0 -39
-42 24 c-24 13 -196 112 -383 220 -187 108 -520 299 -740 426 l-400 230 -3 43
c-3 42 -3 42 20 27 13 -8 208 -121 433 -250z m4101 205 c-2 -27 -4 -64 -5 -84
-1 -32 -6 -39 -50 -62 -27 -15 -51 -27 -55 -27 -3 0 -6 37 -6 83 l0 82 48 27
c66 38 72 36 68 -19z m1064 -533 c0 -373 -3 -570 -10 -570 -5 0 -11 3 -11 8
-4 23 -5 1091 -1 1110 17 83 22 -40 22 -548z m-1250 395 l0 -85 -52 -30 c-29
-16 -57 -30 -61 -30 -4 0 -7 37 -5 82 l3 82 55 33 c30 18 56 33 58 33 1 0 2
-38 2 -85z m2065 15 c100 -38 157 -111 140 -177 -10 -40 -76 -98 -142 -124
-49 -20 -76 -23 -178 -23 -102 0 -129 3 -179 23 -86 34 -137 85 -143 142 -5
41 -2 50 27 83 66 75 161 106 310 102 81 -2 119 -8 165 -26z m-6269 -33 c49
-29 146 -85 216 -125 l127 -73 3 -62 c2 -49 6 -62 21 -65 14 -3 17 4 17 47 0
28 2 51 4 51 4 0 339 -192 1228 -704 279 -161 383 -216 398 -211 19 6 20 2 20
-95 0 -85 -2 -101 -14 -97 -8 3 -180 101 -383 218 -202 117 -532 307 -733 422
-201 116 -450 259 -555 319 -104 61 -250 144 -322 186 l-133 75 0 84 c0 45 4
83 8 83 4 0 48 -24 98 -53z m4024 -86 c0 -87 -3 -92 -87 -135 l-33 -17 0 85 0
84 53 31 c28 17 55 31 60 31 4 0 7 -36 7 -79z m-190 -113 l0 -83 -49 -27 c-27
-16 -54 -28 -59 -28 -6 0 -9 23 -7 58 2 31 4 69 4 83 1 20 12 32 49 52 26 15
50 27 55 27 4 0 7 -37 7 -82z m-3305 -478 c451 -259 883 -508 960 -553 77 -44
201 -116 275 -159 240 -138 220 -123 220 -163 0 -19 -3 -35 -6 -35 -4 0 -68
35 -143 79 -75 43 -329 190 -566 326 -236 136 -594 342 -795 458 -311 180
-557 321 -737 424 -39 23 -43 28 -43 64 0 22 3 38 8 36 4 -3 376 -217 827
-477z m3125 376 l0 -84 -55 -31 c-30 -17 -57 -31 -60 -31 -3 0 -5 37 -5 83 l0
82 58 32 c31 18 58 33 60 33 1 0 2 -38 2 -84z m2150 39 c0 -19 -4 -35 -10 -35
-5 0 -10 16 -10 35 0 19 5 35 10 35 6 0 10 -16 10 -35z m-914 -29 c17 -13 19
-30 22 -195 3 -175 4 -181 23 -171 17 10 19 7 19 -33 0 -41 -3 -47 -40 -71
-22 -14 -42 -26 -44 -26 -3 0 -42 -22 -88 -50 -46 -27 -86 -50 -90 -50 -5 0
-8 20 -8 45 0 34 5 47 20 55 19 10 20 21 20 193 0 170 2 186 23 227 22 45 76
90 107 90 9 0 25 -6 36 -14z m1404 -31 c0 -24 -5 -35 -15 -35 -10 0 -15 11
-15 35 0 24 5 35 15 35 10 0 15 -11 15 -35z m-50 -10 c0 -19 -4 -35 -10 -35
-5 0 -10 16 -10 35 0 19 5 35 10 35 6 0 10 -16 10 -35z m-447 7 c15 -16 13
-19 -29 -41 -71 -38 -92 -95 -53 -145 49 -63 184 -98 300 -78 129 22 196 75
185 144 -6 34 -4 38 20 44 34 9 54 -16 54 -65 0 -29 -9 -43 -50 -82 -71 -70
-154 -93 -298 -86 -132 6 -190 26 -254 88 -38 36 -48 52 -48 78 0 59 32 101
105 140 48 25 48 25 68 3z m-2333 -85 l0 -82 -52 -32 c-29 -17 -56 -29 -59
-27 -10 6 -1 156 10 167 12 12 83 55 94 56 4 1 7 -36 7 -82z m2517 -19 c62
-35 113 -66 113 -69 0 -4 -7 -10 -16 -13 -10 -4 -55 16 -118 53 -99 59 -101
60 -118 41 -18 -22 -33 -25 -43 -10 -7 12 38 60 56 60 7 0 64 -28 126 -62z
m104 -3 c48 -17 81 -43 73 -57 -3 -5 -31 5 -62 23 -91 50 -95 63 -11 34z
m-2801 -84 c0 -86 7 -76 -83 -130 l-38 -23 3 88 3 88 45 27 c68 41 70 40 70
-50z m2486 34 c25 -24 65 -30 76 -11 13 22 18 21 94 -23 65 -38 67 -40 41 -46
-29 -8 -149 10 -181 27 -32 16 -66 50 -60 59 7 12 13 11 30 -6z m-5666 -787
c0 -395 -3 -718 -6 -718 -4 0 -28 12 -55 27 l-49 26 0 723 0 723 55 -32 55
-31 0 -718z m2987 568 c-3 -7 -28 -24 -56 -39 l-51 -28 0 85 0 84 53 31 52 30
3 -76 c2 -42 1 -81 -1 -87z m2573 109 c0 -14 0 -28 1 -32 0 -4 -4 -9 -10 -11
-7 -2 -11 11 -11 32 0 20 5 36 10 36 6 0 10 -11 10 -25z m-5490 0 l30 -16 0
-594 c0 -588 0 -595 20 -595 20 0 20 7 20 580 0 319 4 580 8 580 31 0 32 -25
32 -758 l0 -733 -34 -14 c-29 -12 -42 -13 -73 -2 l-38 12 -3 778 c-1 427 0
777 3 777 3 0 19 -7 35 -15z m5980 -81 c0 -24 -4 -34 -12 -32 -15 5 -22 42
-14 64 10 25 26 5 26 -32z m-3240 -53 c0 -87 -3 -92 -87 -135 l-33 -17 0 85 0
84 53 31 c28 17 55 31 60 31 4 0 7 -36 7 -79z m3197 47 c-4 -45 -27 -49 -27
-4 0 25 4 36 15 36 10 0 14 -9 12 -32z m-5557 -133 l105 -61 3 -722 2 -721
-115 66 -115 67 0 108 c0 88 -3 108 -15 108 -11 0 -15 -20 -17 -101 l-3 -100
-42 36 -43 37 0 710 0 710 68 -38 c37 -21 114 -65 172 -99z m3640 106 c5 -11
11 -95 12 -188 3 -156 4 -168 21 -165 16 3 18 -3 15 -45 -3 -47 -4 -47 -68
-84 -36 -21 -209 -120 -385 -222 l-320 -185 -3 45 c-2 31 1 48 12 56 12 10 15
47 18 197 3 169 5 189 25 227 41 76 115 107 147 61 13 -18 16 -55 16 -190 0
-115 3 -168 11 -168 6 0 24 9 39 20 l28 20 0 184 c0 165 2 187 21 224 37 73
101 103 143 65 16 -14 18 -34 18 -190 0 -119 3 -173 11 -173 6 0 24 9 40 21
l29 20 0 185 c0 204 8 239 67 283 36 26 89 28 103 2z m-2435 -189 l220 -127 3
-38 c2 -20 0 -37 -3 -37 -4 0 -126 68 -271 152 l-264 152 0 39 0 38 48 -26
c26 -14 146 -83 267 -153z m965 56 l0 -83 -49 -27 c-27 -16 -53 -28 -58 -28
-10 0 -12 155 -3 163 12 10 96 57 103 57 4 0 7 -37 7 -82z m-180 -102 l0 -85
-54 -30 c-29 -17 -56 -31 -60 -31 -3 0 -6 37 -6 83 l0 82 53 32 c28 17 55 32
60 32 4 1 7 -37 7 -83z m-1770 -61 c0 -51 3 -65 15 -65 11 0 15 12 15 51 0 43
3 50 18 47 16 -3 17 -48 20 -743 3 -832 9 -765 -74 -765 -80 0 -74 -62 -74
806 l0 774 40 -20 40 -20 0 -65z m1578 -50 l-3 -86 -53 -30 -53 -30 3 87 3 88
45 27 c25 15 49 28 53 28 4 1 6 -37 5 -84z m2538 54 c17 -19 19 -41 22 -194 3
-165 4 -173 23 -168 16 5 19 0 19 -36 0 -36 -4 -43 -37 -64 -56 -35 -220 -127
-227 -127 -3 0 -6 19 -6 43 0 31 5 45 20 55 19 11 20 23 20 195 0 170 2 186
23 227 22 45 76 90 107 90 9 0 25 -9 36 -21z m-3976 -24 c28 -15 30 -19 30
-75 0 -53 2 -60 20 -60 17 0 20 7 20 45 0 25 2 45 5 45 3 0 57 -30 120 -67
l115 -67 0 -719 0 -719 -32 20 c-18 11 -87 50 -153 88 -66 38 -130 80 -142 94
l-22 25 -1 703 c0 386 2 702 5 702 4 0 19 -7 35 -15z m4540 -50 c0 -66 -16
-74 -22 -10 -4 50 -1 65 13 65 5 0 9 -25 9 -55z m277 -217 c106 -60 193 -111
193 -113 0 -4 -67 -43 -1400 -810 -657 -378 -1314 -756 -1460 -840 -607 -351
-843 -486 -849 -488 -3 -1 -272 151 -596 337 -1417 815 -2010 1158 -2017 1164
-3 4 74 53 173 109 l179 102 0 -60 0 -59 75 -42 c68 -39 75 -46 75 -74 0 -18
-8 -38 -20 -49 -16 -14 -20 -31 -20 -81 0 -57 3 -64 30 -87 55 -47 174 -47
229 -1 22 18 31 35 33 64 l3 39 152 -87 c152 -87 152 -87 153 -123 0 -23 -7
-42 -20 -54 -15 -14 -20 -31 -20 -72 0 -64 11 -88 48 -107 67 -34 161 -28 216
15 20 16 26 29 26 60 0 25 4 39 13 38 6 0 75 -38 152 -83 137 -80 140 -83 143
-119 2 -26 -3 -43 -17 -59 -16 -17 -21 -35 -21 -79 0 -52 3 -60 31 -83 39 -33
65 -39 139 -34 79 6 112 30 125 91 l10 47 145 -83 145 -83 3 -47 c2 -26 -1
-47 -6 -47 -31 0 -43 -120 -16 -159 49 -69 220 -67 269 3 8 11 15 38 15 59 l0
38 63 -36 c34 -20 81 -45 103 -57 l41 -21 100 57 c55 31 101 56 104 56 3 0 5
-9 6 -21 4 -47 62 -79 142 -79 58 0 97 13 129 42 30 29 32 124 2 156 -38 41
-28 52 125 140 80 45 149 82 154 82 5 0 11 -10 13 -22 7 -52 117 -90 197 -68
68 18 91 48 91 118 0 46 -4 63 -20 77 -11 10 -20 26 -20 35 0 11 124 88 388
240 213 123 464 268 557 322 165 95 170 98 173 73 10 -81 184 -114 262 -49 27
24 30 31 30 88 0 50 -4 67 -20 81 -39 35 -26 48 130 139 82 47 152 86 155 86
3 0 5 -8 5 -18 0 -43 72 -82 150 -82 57 0 91 11 120 40 29 29 29 134 -1 166
-12 13 -19 29 -16 36 2 7 70 51 151 97 l146 84 0 109 c0 100 2 110 17 104 10
-4 104 -57 210 -118z m1903 -96 c-9 -13 -10 -4 -6 38 3 30 7 78 8 105 1 28 4
11 5 -38 2 -52 -1 -94 -7 -105z m-6300 -350 c3 -302 9 -473 15 -475 7 -1 11
158 13 461 1 254 6 462 10 462 31 0 32 -26 32 -762 l0 -738 -26 -10 c-36 -14
-77 -12 -100 4 -18 14 -19 35 -22 777 -2 419 -1 768 2 776 5 13 11 12 39 -4
l32 -19 5 -472z m6200 404 c0 -83 -8 -136 -21 -136 -5 0 -6 12 -3 27 4 15 8
63 8 105 1 43 4 78 9 78 4 0 7 -33 7 -74z m-6036 -29 c184 -105 279 -163 282
-172 2 -5 3 -328 2 -717 l-3 -707 -125 72 -125 72 -3 363 c-2 354 -3 362 -22
362 -20 0 -20 -7 -20 -352 l0 -352 -22 22 -23 23 3 692 c1 381 2 698 2 705 0
17 7 15 54 -11z m1457 -46 c23 -19 24 -24 27 -196 3 -142 6 -175 17 -171 17 6
22 -11 15 -53 -4 -30 -15 -39 -95 -86 -49 -28 -107 -62 -127 -74 l-38 -23 0
49 c0 37 4 51 20 61 19 11 20 23 20 195 0 156 3 188 19 223 17 38 54 73 91 87
24 9 26 8 51 -12z m3086 -52 c30 -17 51 -35 46 -39 -4 -4 -213 -126 -463 -270
-250 -144 -554 -320 -675 -390 -121 -70 -566 -328 -990 -572 -423 -245 -975
-564 -1225 -708 -250 -145 -489 -283 -530 -306 l-74 -43 -31 18 c-16 10 -185
107 -375 216 -190 109 -412 237 -495 285 -82 48 -224 129 -314 180 -90 52
-165 101 -168 110 -14 49 -62 126 -99 159 -94 83 -260 144 -379 140 l-60 -3
-425 245 c-234 135 -433 250 -443 256 -16 8 -2 19 90 70 l108 61 3 -39 c3 -38
6 -41 95 -93 51 -29 405 -233 787 -453 382 -220 940 -540 1239 -712 485 -279
546 -312 567 -302 20 9 931 533 3179 1827 l560 323 3 35 c2 20 6 36 9 36 3 0
30 -14 60 -31z m-1807 -39 c0 -33 -4 -42 -25 -52 -14 -6 -25 -18 -25 -27 -1
-9 -1 -121 -1 -248 0 -128 -2 -239 -5 -248 -18 -47 -24 9 -24 235 0 138 -4
250 -8 250 -28 0 -32 -30 -32 -232 0 -132 -4 -208 -10 -208 -6 0 -10 65 -11
173 0 157 -4 215 -13 224 -2 2 -51 -24 -110 -58 l-106 -61 0 -264 c0 -169 -4
-264 -10 -264 -6 0 -10 92 -10 255 0 140 -3 255 -6 255 -4 0 -67 -35 -140 -77
l-134 -78 0 -262 c0 -227 -2 -263 -15 -263 -13 0 -15 35 -15 251 0 272 4 253
-47 232 -9 -4 -13 6 -13 33 0 37 11 50 188 231 l187 192 185 25 c102 13 188
24 193 25 4 0 7 -17 7 -39z m-2340 -131 c0 -28 4 -39 15 -39 10 0 15 10 15 30
0 28 2 30 20 20 20 -11 20 -21 20 -755 l0 -743 -35 -12 c-26 -9 -44 -9 -70 0
l-35 12 0 783 0 784 35 -20 c30 -18 35 -26 35 -60z m3800 21 c0 -16 -4 -30
-10 -30 -5 0 -10 14 -10 30 0 17 5 30 10 30 6 0 10 -13 10 -30z m-3460 -790
c0 -445 -4 -810 -9 -810 -11 0 -182 98 -203 118 -17 14 -18 61 -18 724 0 563
3 709 13 706 7 -3 13 -29 15 -71 3 -59 5 -67 22 -67 18 0 20 7 20 64 l0 64 73
41 c39 22 75 41 80 41 4 0 7 -364 7 -810z m2795 739 c42 -25 123 -23 153 5 23
20 32 20 32 2 0 -8 -12 -24 -27 -36 -54 -42 -203 -15 -203 37 0 17 2 17 45 -8z
m-2721 -172 c8 -141 7 -818 -1 -859 -18 -91 -23 23 -23 477 0 486 10 640 24
382z m2833 89 c21 6 46 15 57 19 34 15 12 -19 -25 -37 -57 -30 -158 -18 -179
21 -8 16 -5 16 50 2 46 -12 68 -13 97 -5z m413 -156 c0 -27 -4 -50 -10 -50 -5
0 -10 3 -11 8 0 4 -3 20 -5 36 -6 33 1 56 16 56 5 0 10 -22 10 -50z m-909 -98
c-21 -40 -113 -54 -176 -27 -32 13 -54 39 -43 50 2 3 22 -4 43 -15 22 -11 52
-20 67 -20 38 0 98 26 98 41 0 10 3 10 11 2 8 -8 8 -17 0 -31z m701 -1 c4 -45
1 -61 -13 -61 -5 0 -9 23 -9 50 0 59 16 67 22 11z m-1732 -191 c0 -133 -4
-210 -10 -210 -6 0 -10 77 -10 210 0 133 4 210 10 210 6 0 10 -77 10 -210z
m384 179 c-7 -11 -79 -49 -94 -49 -22 0 -8 16 37 42 45 25 71 28 57 7z m2337
-25 c16 -44 -19 -83 -131 -151 -124 -74 -153 -78 -158 -21 -4 49 29 85 138
148 94 53 137 60 151 24z m-1796 -29 c39 0 80 4 92 8 18 7 22 5 17 -7 -7 -17
-74 -46 -109 -46 -35 0 -102 29 -109 46 -5 12 -1 14 17 7 12 -4 54 -8 92 -8z
m-4647 -185 c221 -127 302 -179 302 -192 0 -10 -3 -18 -6 -18 -4 0 -86 46
-183 102 -97 56 -232 134 -301 174 -94 54 -126 77 -128 94 -2 12 0 20 5 18 4
-3 144 -83 311 -178z m3922 151 c0 -15 -93 -62 -103 -52 -5 5 9 19 35 34 46
27 68 33 68 18z m-854 -22 c18 -20 23 -82 24 -338 0 -16 4 -21 15 -17 10 3 15
-1 16 -12 3 -49 1 -76 -7 -79 -5 -2 -63 -35 -129 -73 l-120 -69 -3 42 c-3 33
1 45 17 58 20 16 21 27 21 200 0 166 2 187 21 227 36 73 107 103 145 61z
m-2821 -49 c50 -25 90 -25 140 0 42 21 51 20 41 -5 -8 -22 -67 -45 -113 -45
-46 0 -107 29 -111 53 -4 21 -5 21 43 -3z m4545 -20 c0 -20 -5 -30 -15 -30
-15 0 -21 40 -8 53 14 15 23 6 23 -23z m-5138 -149 l223 -129 3 -41 c2 -22 0
-41 -4 -41 -19 0 -454 257 -459 272 -5 15 3 68 10 68 2 0 104 -58 227 -129z
m622 89 c38 -8 76 -4 133 14 44 14 14 -22 -33 -40 -49 -19 -110 -14 -150 12
-27 18 -33 39 -7 30 9 -4 35 -11 57 -16z m5727 -7 c32 -19 38 -52 18 -96 -12
-27 -282 -187 -316 -187 -29 0 -73 38 -73 63 1 47 30 72 172 154 78 46 149 83
156 83 8 0 27 -8 43 -17z m-1381 -23 c0 -16 -4 -30 -10 -30 -5 0 -10 14 -10
30 0 17 5 30 10 30 6 0 10 -13 10 -30z m-3805 -440 c514 -295 891 -512 1170
-673 148 -85 201 -121 203 -136 2 -12 2 -21 -1 -21 -2 0 -118 66 -258 146
-404 233 -886 510 -1256 723 -298 170 -343 199 -343 220 0 22 1 22 23 9 12 -8
220 -129 462 -268z m26 210 c37 -11 99 2 123 25 20 20 26 19 26 -5 0 -25 -34
-47 -88 -56 -70 -11 -158 32 -136 68 4 5 13 3 24 -7 9 -8 32 -20 51 -25z
m4744 4 c33 -21 34 -72 3 -105 -13 -13 -86 -60 -162 -103 l-140 -79 -35 19
c-28 14 -37 26 -39 50 -5 46 26 75 155 149 65 37 122 71 128 76 15 14 63 10
90 -7z m-5537 -61 l117 -68 -70 -3 c-70 -3 -117 12 -166 55 -14 11 -18 48 -10
81 2 6 20 -3 129 -65z m827 -13 c25 0 61 7 80 14 41 18 46 6 9 -23 -21 -16
-41 -21 -89 -21 -48 0 -68 5 -89 21 -37 29 -32 41 9 23 19 -7 55 -14 80 -14z
m-641 -109 c27 -11 28 -12 10 -25 -13 -10 -43 -12 -119 -8 -125 6 -202 -13
-252 -63 -92 -92 15 -197 204 -199 64 -1 73 -3 82 -23 11 -23 10 -23 -73 -23
-195 0 -351 100 -316 204 21 64 109 124 213 146 53 11 212 5 251 -9z m242 -32
c80 -14 210 -78 262 -129 108 -106 107 -201 -2 -251 -78 -36 -227 -20 -343 37
-65 31 -155 112 -177 158 -39 83 -3 156 89 181 63 17 96 18 171 4z m-346 -39
c0 -11 -4 -20 -10 -20 -5 0 -10 9 -10 20 0 11 5 20 10 20 6 0 10 -9 10 -20z
m20 -92 c0 -25 -6 -23 -85 23 -69 40 -70 40 -84 20 -7 -12 -20 -21 -27 -21
-29 0 -8 46 30 67 15 8 33 2 92 -31 47 -26 74 -47 74 -58z m3034 86 c28 -37
134 -37 176 1 11 10 20 12 24 7 22 -36 -66 -79 -136 -68 -54 9 -88 31 -88 56
0 24 9 26 24 4z m-1743 -74 c31 0 55 7 72 20 31 25 37 25 37 0 0 -29 -50 -50
-120 -50 -52 0 -65 4 -86 25 -34 34 -22 49 19 25 19 -12 50 -20 78 -20z m1834
-20 c25 0 61 7 80 14 41 18 46 6 9 -23 -21 -16 -41 -21 -89 -21 -48 0 -68 5
-89 21 -37 29 -32 41 9 23 19 -7 55 -14 80 -14z m-859 -115 c5 -123 -1 -175
-17 -175 -5 0 -9 66 -9 151 0 104 3 150 11 147 7 -2 12 -50 15 -123z m-2479
84 c31 -10 38 -9 48 5 16 22 17 21 92 -20 73 -41 70 -55 -11 -48 -107 9 -201
52 -181 84 6 10 10 10 12 3 3 -7 21 -17 40 -24z m1426 -4 c44 -18 100 -19 150
-1 41 15 47 8 17 -19 -42 -38 -177 -27 -200 16 -13 23 -12 23 33 4z m-1165
-55 c-5 -17 -16 -30 -24 -30 -10 0 -11 6 -3 26 14 38 19 45 29 39 5 -3 4 -19
-2 -35z m-388 -45 c0 -19 -4 -35 -10 -35 -5 0 -10 16 -10 35 0 19 5 35 10 35
6 0 10 -16 10 -35z m1165 -105 c50 -29 104 -60 120 -70 17 -9 104 -60 195
-112 91 -52 257 -148 370 -213 425 -244 390 -220 390 -265 0 -22 -2 -40 -5
-40 -8 0 -1208 690 -1216 698 -4 4 0 22 7 40 12 26 18 31 32 23 9 -5 58 -33
107 -61z m1662 0 c34 -27 107 -27 150 0 38 23 51 12 24 -21 -15 -19 -31 -24
-83 -27 -75 -5 -128 15 -128 48 0 25 6 25 37 0z m553 -11 c0 -17 -4 -28 -10
-24 -5 3 -10 17 -10 31 0 13 5 24 10 24 6 0 10 -14 10 -31z m-1190 -54 c48 0
63 4 84 24 l26 24 0 -27 c0 -21 -7 -30 -35 -42 -82 -34 -208 1 -188 53 4 11
10 10 30 -9 20 -19 36 -23 83 -23z m-3825 -99 c0 -82 -3 -119 -9 -108 -17 30
-11 232 7 232 1 0 2 -56 2 -124z m2455 110 c0 -29 -21 -69 -30 -60 -6 6 -5 22
2 42 13 33 28 43 28 18z m2080 -35 c19 0 52 6 73 13 32 12 37 12 37 -1 0 -42
-157 -57 -200 -18 -30 27 -24 34 18 19 20 -7 53 -13 72 -13z m-4435 -136 c0
-82 -3 -117 -9 -102 -15 39 -10 227 7 227 1 0 2 -56 2 -125z m3780 97 c38 11
55 12 52 4 -5 -18 -70 -46 -107 -46 -37 0 -102 28 -107 46 -3 8 14 7 52 -4 50
-14 60 -14 110 0z m1015 -172 c0 -38 -4 -50 -15 -50 -11 0 -15 11 -15 43 0 24
3 47 7 50 16 17 23 3 23 -43z m-440 -40 c0 -16 -4 -30 -10 -30 -5 0 -10 14
-10 30 0 17 5 30 10 30 6 0 10 -13 10 -30z m-4100 -9 c5 -11 10 -29 10 -41 0
-16 -5 -21 -22 -18 -24 3 -49 43 -41 64 8 21 41 17 53 -5z m140 -93 c12 -22
12 -30 2 -40 -23 -23 -71 24 -59 56 10 24 38 16 57 -16z m3630 -50 c0 -23 -7
-23 -47 2 -20 12 -33 28 -33 40 0 21 0 21 40 -1 24 -14 40 -30 40 -41z m-3502
-10 c17 -17 15 -68 -2 -68 -22 0 -46 29 -46 56 0 26 27 33 48 12z m133 -79
c25 -25 22 -64 -6 -64 -23 0 -51 45 -42 68 8 23 23 21 48 -4z m131 -76 c24
-28 28 -51 12 -64 -28 -23 -74 48 -47 74 10 11 19 8 35 -10z m3099 -25 c57
-32 59 -34 59 -75 0 -24 -3 -43 -6 -43 -4 0 -33 16 -65 36 -56 34 -59 38 -59
75 0 21 3 39 6 39 3 0 32 -15 65 -32z m-2651 -172 c157 -91 195 -121 202 -160
6 -32 -12 -70 -35 -74 -21 -4 -308 157 -349 196 -51 47 -45 122 10 122 15 -1
91 -37 172 -84z m442 -313 c19 -17 24 -58 9 -67 -28 -18 -72 44 -50 70 15 18
18 18 41 -3z m147 -95 c12 -22 13 -29 2 -42 -17 -20 -48 -5 -57 29 -13 50 29
61 55 13z m131 -67 c5 -11 10 -29 10 -41 0 -16 -5 -21 -22 -18 -24 3 -54 51
-43 68 10 17 44 11 55 -9z m1903 -93 c4 -65 2 -108 -4 -108 -5 0 -9 48 -9 112
0 61 2 109 4 107 2 -2 6 -52 9 -111z m-1769 10 c20 -28 20 -47 1 -55 -21 -8
-55 25 -55 54 0 30 33 31 54 1z m144 -98 c5 -28 -9 -43 -31 -34 -20 7 -32 46
-23 70 6 15 9 15 29 1 12 -8 24 -24 25 -37z m286 -147 c-3 -60 -8 -110 -10
-112 -2 -2 -4 46 -4 107 0 73 4 112 11 112 7 0 8 -34 3 -107z m853 -100 c-2
-32 -3 -6 -3 57 0 63 1 89 3 58 2 -32 2 -84 0 -115z m-437 -10 c0 -78 -3 -114
-10 -107 -9 9 -3 224 7 224 1 0 3 -53 3 -117z m89 5 c-1 -72 -4 -104 -9 -88
-12 37 -12 200 0 200 6 0 10 -44 9 -112z"/>
<path d="M13710 8685 c0 -15 94 -75 118 -75 29 0 8 28 -44 58 -63 36 -74 39
-74 17z"/>
<path d="M14635 8500 c-3 -5 -4 -14 0 -19 7 -13 179 -111 194 -111 29 0 5 29
-51 62 -35 19 -79 45 -100 57 -23 14 -39 18 -43 11z"/>
<path d="M11397 7925 c-4 -9 30 -35 111 -83 191 -112 180 -108 194 -94 6 6 10
13 7 15 -13 9 -249 147 -276 160 -26 14 -32 14 -36 2z"/>
<path d="M11546 6814 c-4 -9 -5 -18 -4 -19 45 -27 148 -85 151 -85 3 0 7 6 10
14 4 10 -10 24 -41 42 -26 15 -61 35 -78 45 -29 18 -32 18 -38 3z"/>
<path d="M15580 7579 c-61 -9 -229 -31 -910 -119 l-465 -60 -115 -117 c-64
-65 -291 -298 -505 -518 -214 -220 -484 -497 -600 -615 -116 -118 -224 -230
-240 -249 -28 -33 -28 -34 -5 -19 14 8 102 59 195 113 94 54 226 130 295 170
126 73 986 569 1395 805 121 70 398 229 615 354 217 126 409 236 425 247 l30
19 -30 -1 c-16 -1 -55 -5 -85 -10z m-495 -238 c-22 -21 -379 -221 -388 -218
-6 2 32 28 84 59 52 31 137 81 189 111 85 50 141 74 115 48z m-573 -98 l3 -58
22 37 c18 31 103 91 103 73 0 -3 -14 -33 -31 -66 -33 -66 -34 -56 16 -125 15
-20 14 -23 -20 -43 -45 -26 -52 -26 -65 -1 -15 28 -30 16 -30 -23 0 -25 -7
-36 -31 -50 -17 -9 -34 -15 -38 -13 -3 3 -5 58 -4 123 1 65 2 129 3 143 0 22
36 56 62 59 4 1 8 -25 10 -56z m-114 -115 c7 -7 12 -44 12 -95 0 -83 0 -83
-32 -103 -18 -11 -36 -20 -40 -20 -5 0 -8 32 -8 71 0 62 -2 70 -15 59 -11 -9
-15 -33 -15 -84 l0 -72 -40 -23 -41 -23 3 114 3 113 31 15 c17 9 44 26 60 38
33 24 64 28 82 10z m-214 -124 c12 -11 16 -36 16 -99 l0 -83 -32 -13 c-18 -7
-47 -24 -65 -37 -46 -34 -77 -27 -81 18 -2 20 4 49 14 68 13 25 15 37 6 56 -9
20 -7 27 16 49 29 27 80 56 99 57 6 0 19 -7 27 -16z m-190 -66 c7 -12 7 -29 0
-58 -6 -22 -7 -40 -3 -40 20 0 20 -50 1 -94 -20 -43 -62 -79 -150 -125 l-23
-12 3 142 3 142 60 34 c64 35 92 38 109 11z m-214 -346 c0 -11 -390 -234 -403
-229 -6 2 54 41 134 87 79 45 169 98 199 116 58 34 70 39 70 26z"/>
<path d="M14467 7259 c-15 -9 -17 -27 -17 -134 0 -69 3 -125 6 -125 24 0 44
24 44 53 0 50 19 63 45 31 19 -24 23 -25 43 -13 28 17 28 21 -5 59 l-26 32 21
44 c27 55 27 57 2 42 -10 -7 -31 -38 -45 -70 -37 -82 -45 -81 -39 5 7 77 1 92
-29 76z"/>
<path d="M14353 7119 c-12 -4 -32 -22 -44 -38 -14 -19 -26 -28 -32 -22 -5 5
-16 7 -23 4 -11 -4 -14 -28 -14 -95 0 -80 2 -89 18 -86 14 3 18 17 23 81 5 81
23 115 53 104 12 -5 16 -21 16 -68 0 -52 2 -60 16 -55 9 3 18 6 20 6 7 0 4
169 -3 173 -5 3 -18 1 -30 -4z"/>
<path d="M14125 6988 c-28 -15 -65 -50 -65 -60 0 -5 11 -1 25 8 24 16 55 13
55 -4 0 -5 -19 -22 -42 -38 -44 -31 -73 -83 -63 -115 9 -26 19 -24 57 11 31
28 32 29 11 30 -41 0 -26 45 26 75 11 6 13 1 9 -24 -5 -34 10 -55 30 -42 9 5
12 31 10 87 -3 84 -12 96 -53 72z"/>
<path d="M14107 6863 c-4 -3 -7 -11 -7 -17 0 -6 5 -5 12 2 6 6 9 14 7 17 -3 3
-9 2 -12 -2z"/>
<path d="M13888 6907 l-58 -32 0 -117 c0 -65 3 -118 6 -118 14 0 92 52 118 79
35 36 44 107 14 105 -22 -2 -23 6 -3 32 8 10 15 34 15 52 0 42 -17 42 -92 -1z
m50 -40 c3 -16 -31 -57 -48 -57 -5 0 -10 13 -10 30 0 43 50 67 58 27z m2 -101
c0 -15 -11 -33 -27 -46 l-28 -22 -3 32 c-4 36 12 60 39 60 13 0 19 -7 19 -24z"/>
<path d="M13900 6855 c-8 -9 -8 -15 -2 -15 12 0 26 19 19 26 -2 2 -10 -2 -17
-11z"/>
<path d="M13896 6762 c-2 -4 -1 -14 4 -21 6 -11 10 -9 19 8 10 17 9 21 -3 21
-8 0 -17 -4 -20 -8z"/>
<path d="M15768 7182 c-26 -15 -28 -22 -28 -79 0 -35 3 -63 6 -63 4 0 22 9 40
21 32 20 34 23 34 80 0 65 -6 70 -52 41z"/>
<path d="M15588 7078 c-38 -22 -38 -23 -38 -85 0 -35 3 -63 6 -63 4 0 22 9 40
21 33 20 34 23 34 85 0 35 -1 64 -2 64 -2 0 -20 -10 -40 -22z"/>
<path d="M15405 6970 c-27 -17 -31 -26 -35 -81 -3 -33 -3 -62 -1 -64 2 -2 21
6 42 18 39 22 39 22 39 85 0 34 -3 62 -7 62 -5 0 -21 -9 -38 -20z"/>
<path d="M15213 6860 c-31 -19 -33 -23 -33 -80 0 -33 4 -60 9 -60 5 0 23 8 40
18 29 16 31 20 31 80 0 34 -3 62 -7 62 -5 0 -23 -9 -40 -20z"/>
<path d="M15038 6758 c-38 -22 -38 -23 -38 -85 l0 -63 40 20 40 20 0 65 c0 36
-1 65 -2 65 -2 0 -20 -10 -40 -22z"/>
<path d="M14848 6649 l-38 -19 0 -65 0 -65 40 20 c22 11 40 24 41 28 5 43 5
90 0 103 -6 16 -9 16 -43 -2z"/>
<path d="M15450 6275 c0 -140 2 -165 15 -165 13 0 15 25 15 165 0 140 -2 165
-15 165 -13 0 -15 -25 -15 -165z"/>
<path d="M14880 5585 c0 -515 1 -546 18 -543 16 3 17 37 17 543 0 506 -1 540
-17 543 -17 3 -18 -28 -18 -543z"/>
<path d="M15450 5400 c0 -527 2 -600 15 -600 13 0 15 73 15 600 0 527 -2 600
-15 600 -13 0 -15 -73 -15 -600z"/>
<path d="M13520 5120 c0 -180 2 -210 15 -210 13 0 15 30 15 210 0 180 -2 210
-15 210 -13 0 -15 -30 -15 -210z"/>
<path d="M12940 4360 c0 -562 2 -640 15 -640 13 0 15 78 15 640 0 562 -2 640
-15 640 -13 0 -15 -78 -15 -640z"/>
<path d="M13520 4715 c0 -104 2 -125 15 -125 13 0 15 21 15 125 0 104 -2 125
-15 125 -13 0 -15 -21 -15 -125z"/>
<path d="M14880 4650 c0 -158 1 -171 18 -168 15 3 17 19 17 168 0 149 -2 165
-17 168 -17 3 -18 -10 -18 -168z"/>
<path d="M13520 4110 c0 -376 2 -430 15 -430 13 0 15 54 15 430 0 376 -2 430
-15 430 -13 0 -15 -54 -15 -430z"/>
<path d="M12940 3500 c0 -127 2 -150 15 -150 13 0 15 23 15 150 0 127 -2 150
-15 150 -13 0 -15 -23 -15 -150z"/>
<path d="M16694 5585 c-105 -23 -198 -83 -224 -145 -7 -18 -11 -61 -9 -113 4
-73 8 -88 31 -120 37 -47 147 -102 238 -117 160 -27 356 33 417 127 20 31 34
150 23 199 -30 132 -265 215 -476 169z m229 -30 c269 -57 291 -257 37 -332
-78 -23 -217 -20 -301 6 -82 26 -155 86 -165 136 -25 133 208 237 429 190z
m-383 -309 c0 -19 -4 -38 -10 -41 -10 -6 -12 0 -12 35 0 34 2 40 12 40 6 0 10
-15 10 -34z m480 -72 c0 -19 -4 -34 -10 -34 -5 0 -10 18 -10 41 0 24 4 38 10
34 6 -3 10 -22 10 -41z m-40 -9 c0 -34 -19 -51 -21 -20 -1 8 -2 21 -3 28 -3
16 3 27 15 27 5 0 9 -16 9 -35z"/>
<path d="M16715 5511 c-96 -26 -149 -71 -149 -126 0 -102 206 -167 371 -117
111 34 153 89 120 157 -26 54 -106 87 -220 91 -51 2 -105 0 -122 -5z m145 -31
c0 -11 -4 -20 -10 -20 -5 0 -10 9 -10 20 0 11 5 20 10 20 6 0 10 -9 10 -20z
m-8 -65 c59 -33 108 -64 108 -68 0 -25 -41 -12 -132 42 -101 59 -103 60 -120
41 -16 -20 -48 -27 -48 -11 0 16 54 62 69 59 9 -2 64 -30 123 -63z m141 -21
c32 -21 49 -44 31 -44 -9 0 -134 71 -134 77 0 11 68 -11 103 -33z m-360 -28
c9 -23 68 -32 82 -12 7 9 15 16 17 16 3 0 36 -18 74 -40 78 -46 71 -57 -29
-46 -77 8 -167 49 -167 77 0 22 15 26 23 5z"/>
<path d="M9325 3733 c-115 -17 -211 -63 -255 -125 -28 -38 -30 -47 -30 -128 0
-103 16 -135 94 -187 184 -124 520 -78 603 81 22 42 18 180 -5 220 -27 46 -95
93 -165 115 -64 19 -189 32 -242 24z m242 -57 c158 -53 200 -176 89 -261 -76
-58 -234 -88 -351 -66 -83 15 -183 67 -213 111 -70 103 53 222 248 239 79 7
161 -1 227 -23z m-449 -298 c-2 -18 -7 -33 -13 -33 -5 0 -11 15 -13 33 -3 24
1 32 13 32 12 0 16 -8 13 -32z m482 -63 c0 -19 -4 -35 -10 -35 -5 0 -10 16
-10 35 0 19 5 35 10 35 6 0 10 -16 10 -35z m-40 -10 c0 -24 -5 -35 -15 -35
-10 0 -15 11 -15 35 0 24 5 35 15 35 10 0 15 -11 15 -35z"/>
<path d="M9303 3650 c-175 -37 -214 -159 -73 -228 50 -24 66 -27 165 -27 94 0
117 3 163 24 59 26 92 65 92 107 0 36 -63 96 -120 113 -56 17 -173 23 -227 11z
m137 -35 c0 -14 -4 -25 -10 -25 -5 0 -10 11 -10 25 0 14 5 25 10 25 6 0 10
-11 10 -25z m-14 -61 c103 -60 129 -84 89 -84 -8 0 -53 23 -99 50 -111 65
-113 66 -134 41 -12 -14 -21 -18 -31 -12 -12 7 -8 15 17 40 17 17 34 31 38 31
3 0 58 -30 120 -66z m126 -10 c34 -18 60 -43 53 -54 -4 -7 -124 58 -145 77 -9
10 65 -9 92 -23z m-300 -63 c21 -8 29 -6 43 9 17 19 18 18 64 -8 26 -15 58
-35 72 -45 24 -18 23 -18 -56 -14 -113 7 -211 51 -184 84 10 11 13 11 23 -1 6
-9 23 -20 38 -25z"/>
<path d="M10903 2961 c-99 -27 -167 -73 -199 -133 -23 -44 -19 -175 7 -217 41
-68 120 -112 245 -138 186 -38 409 48 442 171 17 61 9 157 -17 199 -27 43 -98
92 -166 113 -81 26 -227 28 -312 5z m243 -22 c221 -41 298 -201 140 -294 -73
-43 -147 -58 -266 -53 -89 3 -114 8 -165 31 -98 46 -142 101 -131 163 21 111
232 188 422 153z m-376 -314 c0 -19 -4 -35 -10 -35 -5 0 -10 16 -10 35 0 19 5
35 10 35 6 0 10 -16 10 -35z m480 -65 c0 -22 -4 -40 -10 -40 -5 0 -10 18 -10
40 0 22 5 40 10 40 6 0 10 -18 10 -40z m-40 -15 c0 -25 -4 -35 -15 -35 -12 0
-15 9 -13 35 1 21 7 35 15 35 8 0 13 -13 13 -35z"/>
<path d="M10937 2890 c-164 -42 -191 -163 -49 -228 48 -22 71 -26 152 -27 117
0 186 21 230 71 82 94 -15 184 -205 190 -49 2 -107 -1 -128 -6z m153 -30 c0
-11 -4 -20 -10 -20 -5 0 -10 9 -10 20 0 11 5 20 10 20 6 0 10 -9 10 -20z m-10
-62 c60 -35 110 -67 110 -71 0 -24 -38 -11 -131 42 -102 60 -104 60 -121 41
-17 -21 -33 -26 -42 -11 -8 12 40 61 59 61 8 0 65 -28 125 -62z m115 -7 c22
-10 46 -25 53 -34 17 -20 7 -42 -11 -26 -7 6 -37 26 -67 45 -60 37 -44 47 25
15z m-329 -46 c26 -26 65 -30 81 -9 13 18 15 18 66 -10 29 -16 61 -35 71 -42
18 -12 18 -13 -7 -19 -39 -10 -162 14 -199 39 -18 12 -34 29 -36 39 -4 21 5
22 24 2z"/>
<path d="M14658 6542 c-26 -16 -28 -22 -28 -79 0 -35 3 -63 8 -63 4 0 22 9 40
20 30 19 32 23 32 80 0 66 -6 70 -52 42z"/>
<path d="M14478 6437 c-37 -22 -38 -23 -38 -84 0 -35 3 -63 8 -63 4 0 22 9 40
20 31 19 32 22 32 85 0 36 -1 65 -2 65 -2 -1 -20 -11 -40 -23z"/>
<path d="M16350 6400 c-109 -19 -180 -71 -180 -132 0 -43 56 -93 127 -114 81
-24 231 -16 297 16 83 40 107 111 54 167 -46 49 -198 81 -298 63z m120 -41 c0
-12 -5 -19 -11 -17 -6 2 -10 7 -10 11 1 4 1 14 1 23 0 8 5 12 10 9 6 -3 10
-15 10 -26z m-18 -55 c62 -36 114 -67 116 -69 1 -1 -4 -7 -11 -13 -10 -9 -37
2 -117 48 -57 33 -106 60 -110 60 -4 0 -14 -9 -21 -20 -10 -14 -18 -17 -28
-11 -12 7 -8 15 17 40 17 17 33 31 36 31 3 0 56 -30 118 -66z m129 -14 c19
-10 41 -25 48 -33 25 -32 -7 -23 -79 20 -63 37 -69 43 -40 38 19 -4 51 -16 71
-25z m-341 -38 c0 -4 15 -13 33 -20 28 -11 34 -10 48 7 16 19 18 19 89 -22
l72 -42 -63 -3 c-39 -2 -82 3 -113 13 -53 17 -99 52 -90 66 7 11 24 12 24 1z"/>
<path d="M14293 6329 c-32 -20 -33 -24 -33 -85 l0 -65 40 23 c40 23 40 23 40
86 0 34 -3 62 -7 62 -5 0 -23 -10 -40 -21z"/>
<path d="M14103 6220 c-31 -19 -33 -23 -33 -80 0 -35 4 -60 10 -60 9 0 39 16
69 36 3 3 4 73 2 112 -1 17 -11 15 -48 -8z"/>
<path d="M13928 6119 c-38 -19 -38 -20 -38 -84 0 -36 2 -65 4 -65 3 0 21 9 40
21 35 21 36 22 36 85 0 35 -1 64 -2 64 -2 -1 -20 -10 -40 -21z"/>
<path d="M15172 6078 c-15 -15 -17 -284 -2 -293 5 -3 21 2 35 11 24 16 25 20
25 128 0 134 -22 190 -58 154z"/>
<path d="M15111 6026 c-19 -30 -26 -57 -29 -117 -5 -84 2 -95 41 -66 15 10 17
27 15 117 l-3 105 -24 -39z"/>
<path d="M15102 5804 c-20 -13 -22 -24 -22 -95 0 -43 3 -79 6 -79 3 0 35 16
70 36 45 25 66 43 70 61 9 36 -9 50 -40 29 -14 -9 -25 -20 -25 -24 3 -18 -2
-32 -11 -32 -6 0 -10 27 -10 60 0 33 -3 60 -8 60 -4 0 -18 -7 -30 -16z"/>
<path d="M15152 5636 c-107 -61 -120 -72 -106 -85 5 -6 43 10 100 42 105 60
126 76 118 88 -8 14 -14 12 -112 -45z"/>
<path d="M13738 6009 c-38 -19 -38 -20 -38 -84 0 -36 2 -65 4 -65 3 0 20 9 39
20 32 19 35 26 39 71 5 75 0 81 -44 58z"/>
<path d="M13558 5906 c-37 -21 -38 -22 -38 -83 0 -35 3 -63 8 -63 4 0 22 9 40
20 31 19 32 22 32 85 0 36 -1 65 -2 64 -2 -1 -20 -11 -40 -23z"/>
<path d="M13367 5794 c-36 -24 -37 -27 -37 -84 0 -33 3 -60 6 -60 15 0 74 43
75 53 2 39 1 109 -3 112 -2 3 -21 -7 -41 -21z"/>
<path d="M10542 4383 c2 -97 6 -118 18 -118 12 0 16 21 18 118 3 112 2 117
-18 117 -20 0 -21 -5 -18 -117z"/>
<path d="M13183 5688 c-32 -19 -33 -22 -33 -85 l0 -64 40 22 40 23 0 63 c0 35
-3 63 -7 62 -5 0 -23 -10 -40 -21z"/>
<path d="M14448 5665 c-14 -8 -35 -34 -47 -58 -18 -37 -21 -62 -21 -170 0 -70
2 -127 5 -127 3 0 17 7 30 16 25 16 25 18 25 160 0 89 4 144 10 144 6 0 10
-38 10 -95 l0 -96 30 16 30 16 0 92 c0 116 -12 134 -72 102z"/>
<path d="M14207 5523 c-8 -8 -9 -183 -2 -183 3 0 17 7 30 16 22 14 25 24 25
76 0 33 -5 68 -10 79 -11 19 -31 25 -43 12z"/>
<path d="M14142 5461 c-13 -22 -22 -56 -22 -80 l0 -42 30 16 c29 15 30 18 30
80 0 36 -4 65 -8 65 -5 0 -18 -17 -30 -39z"/>
<path d="M14483 5423 c-20 -13 -23 -24 -23 -84 0 -38 3 -69 8 -69 4 0 18 7 30
16 19 13 22 24 22 85 0 38 -3 69 -7 68 -5 0 -18 -7 -30 -16z"/>
<path d="M13928 5364 c-51 -27 -68 -79 -68 -204 0 -60 3 -110 8 -110 4 0 18 7
30 16 21 14 22 22 22 135 0 78 4 118 10 114 6 -3 10 -42 10 -86 0 -43 2 -79 5
-79 3 0 17 7 30 16 23 15 25 22 25 96 0 113 -14 134 -72 102z"/>
<path d="M14142 5322 c-22 -17 -23 -23 -20 -135 l3 -117 65 38 65 37 3 98 c1
53 0 97 -3 97 -3 0 -17 -7 -30 -16 -23 -15 -25 -23 -25 -90 0 -43 -4 -74 -10
-74 -6 0 -10 37 -10 90 0 50 -3 90 -7 90 -5 0 -18 -8 -31 -18z"/>
<path d="M14408 5294 c-21 -11 -28 -22 -28 -45 l0 -30 30 16 c23 12 30 22 30
45 0 17 -1 30 -2 30 -2 -1 -15 -8 -30 -16z"/>
<path d="M14443 5228 c-76 -44 -103 -65 -103 -80 0 -18 4 -18 53 11 28 17 78
46 110 63 36 21 57 39 57 50 0 10 -3 18 -7 17 -5 0 -54 -28 -110 -61z"/>
<path d="M13968 5134 c-27 -14 -28 -18 -28 -89 0 -41 4 -75 9 -75 5 0 19 8 30
18 19 15 22 25 19 89 l-3 71 -27 -14z"/>
<path d="M14185 5079 c-71 -41 -101 -65 -103 -80 -4 -22 -3 -22 40 3 23 14 73
43 111 64 43 25 67 45 67 56 0 10 -3 18 -7 17 -5 0 -53 -27 -108 -60z"/>
<path d="M13883 5028 c-19 -9 -23 -19 -23 -60 0 -47 1 -48 23 -37 31 16 37 28
37 72 0 40 -3 42 -37 25z"/>
<path d="M13923 4928 c-77 -44 -103 -65 -103 -80 0 -19 1 -19 43 5 23 13 72
42 110 63 43 25 67 45 67 56 0 10 -3 18 -7 17 -5 0 -54 -28 -110 -61z"/>
<path d="M12993 5579 c-32 -20 -33 -24 -33 -86 l0 -64 39 23 c21 13 39 26 40
31 4 26 0 117 -6 117 -5 0 -23 -10 -40 -21z"/>
<path d="M12818 5478 c-38 -22 -38 -23 -38 -85 0 -35 3 -63 6 -63 4 0 22 9 40
21 33 20 34 23 34 85 0 35 -1 64 -2 64 -2 0 -20 -10 -40 -22z"/>
<path d="M11112 4688 c2 -326 6 -422 16 -426 9 -3 12 86 12 422 0 373 -2 426
-15 426 -13 0 -15 -51 -13 -422z"/>
<path d="M11110 4075 c0 -87 3 -105 15 -105 12 0 15 18 15 105 0 87 -3 105
-15 105 -12 0 -15 -18 -15 -105z"/>
<path d="M12627 5367 c-37 -21 -37 -22 -37 -84 0 -35 2 -63 5 -63 3 0 23 11
45 25 39 24 40 27 40 80 0 29 -4 56 -8 59 -4 2 -24 -5 -45 -17z"/>
<path d="M15133 5352 c-16 -16 -35 -48 -41 -69 -12 -40 -17 -163 -7 -163 3 0
17 7 30 16 23 15 25 22 25 101 0 63 3 84 13 80 7 -2 11 -16 9 -35 -4 -36 -3
-37 33 -20 24 11 26 16 23 62 -3 47 -5 51 -29 54 -18 2 -35 -6 -56 -26z"/>
<path d="M15183 5225 c-19 -13 -21 -25 -22 -124 -2 -114 4 -130 39 -111 18 10
20 21 20 130 0 66 -3 120 -8 120 -4 0 -17 -7 -29 -15z"/>
<path d="M15108 5104 c-27 -14 -28 -18 -28 -94 0 -84 6 -94 43 -66 15 12 17
26 15 94 l-3 80 -27 -14z"/>
<path d="M15145 4931 c-55 -33 -100 -65 -100 -72 0 -21 20 -13 122 44 61 34
93 58 93 70 0 9 -3 17 -7 17 -5 -1 -53 -27 -108 -59z"/>
<path d="M11670 3801 c0 -141 2 -170 15 -175 13 -5 15 18 15 169 0 149 -2 175
-15 175 -13 0 -15 -25 -15 -169z"/>
<path d="M13237 4963 c-10 -9 -9 -133 1 -133 4 0 18 7 30 16 37 26 27 124 -13
124 -7 0 -15 -3 -18 -7z"/>
<path d="M13171 4897 c-16 -34 -21 -63 -21 -130 0 -48 3 -87 8 -87 4 0 18 7
30 16 21 14 22 23 22 130 0 63 -4 114 -9 114 -5 0 -19 -19 -30 -43z"/>
<path d="M13258 4812 c-28 -16 -28 -18 -28 -119 0 -62 -4 -103 -10 -103 -5 0
-10 21 -10 46 l0 45 -30 -18 c-29 -17 -30 -20 -30 -86 l0 -69 58 32 c86 48 83
42 80 173 l-3 116 -27 -17z"/>
<path d="M13215 4520 c-55 -33 -101 -66 -103 -75 -6 -25 15 -18 119 43 65 38
99 63 99 75 0 9 -3 17 -7 16 -5 0 -53 -27 -108 -59z"/>
<path d="M14341 4869 l-144 -20 -176 -181 c-97 -99 -178 -185 -180 -190 -5
-14 38 10 383 210 171 98 312 184 314 190 5 15 -19 14 -197 -9z"/>
<path d="M12230 4310 c0 -82 3 -100 15 -100 12 0 15 18 15 100 0 82 -3 100
-15 100 -12 0 -15 -18 -15 -100z"/>
<path d="M12230 3730 c0 -358 2 -410 15 -410 13 0 15 52 15 410 0 358 -2 410
-15 410 -13 0 -15 -52 -15 -410z"/>
<path d="M16630 4343 c0 -18 -13 -38 -40 -63 -52 -48 -51 -58 2 -26 59 35 89
96 53 110 -11 4 -15 -2 -15 -21z"/>
<path d="M16571 4331 c-23 -18 -25 -51 -2 -51 12 0 41 40 41 57 0 18 -11 16
-39 -6z"/>
<path d="M13212 4245 c-50 -42 -62 -81 -62 -200 l0 -106 30 21 30 21 0 110 c0
66 4 109 10 109 6 0 10 -10 11 -22 4 -123 5 -125 37 -102 19 13 22 24 22 93 0
104 -21 124 -78 76z"/>
<path d="M13259 4041 c-23 -18 -26 -28 -28 -88 -2 -84 7 -101 38 -76 20 16 22
26 19 101 l-3 84 -26 -21z"/>
<path d="M13178 3932 c-25 -15 -28 -23 -28 -70 l0 -53 30 16 c28 14 30 20 30
70 0 30 -1 55 -2 54 -2 0 -15 -8 -30 -17z"/>
<path d="M13218 3818 c-77 -44 -108 -67 -108 -80 0 -11 3 -17 8 -15 112 58
212 124 212 139 0 10 -1 18 -2 18 -2 0 -51 -28 -110 -62z"/>
<path d="M16043 4056 c-66 -39 -131 -80 -142 -90 -21 -19 -30 -76 -11 -76 6 0
10 8 10 18 0 33 29 59 127 115 152 87 181 106 158 106 -11 -1 -75 -33 -142
-73z"/>
<path d="M16069 4030 c-107 -63 -139 -87 -149 -111 -11 -26 -11 -33 2 -46 14
-14 30 -7 157 67 140 81 176 112 169 147 -6 34 -43 22 -179 -57z"/>
<path d="M15615 3807 c-143 -84 -177 -117 -157 -153 7 -12 12 -7 24 24 13 35
29 47 139 110 141 81 172 101 149 101 -8 0 -78 -37 -155 -82z"/>
<path d="M15670 3799 c-147 -84 -182 -113 -178 -149 2 -14 10 -26 19 -28 16
-3 245 124 283 157 10 9 22 25 26 36 8 20 -4 55 -18 55 -4 0 -63 -32 -132 -71z"/>
<path d="M10554 3611 c-45 -20 -54 -35 -54 -87 0 -50 63 -115 157 -161 63 -31
87 -37 157 -41 64 -3 90 -1 115 12 122 64 9 228 -194 281 -78 20 -131 19 -181
-4z m220 -115 c47 -58 86 -107 86 -110 0 -3 -8 -6 -18 -6 -11 0 -48 36 -91 90
-74 91 -87 100 -109 78 -9 -9 -15 -9 -24 1 -11 10 -9 15 7 24 11 7 29 15 40
19 11 3 21 6 22 7 1 1 40 -46 87 -103z m46 67 c0 -5 -4 -15 -10 -23 -11 -18
-25 -7 -17 15 6 15 27 21 27 8z m-231 -78 c18 -16 25 -17 41 -7 11 7 21 12 23
12 2 0 27 -30 56 -66 60 -75 55 -77 -59 -21 -45 23 -73 44 -94 75 -26 36 -28
45 -16 52 11 7 17 4 21 -8 4 -9 16 -26 28 -37z m305 -55 c20 -23 36 -46 33
-53 -5 -15 -27 -21 -27 -7 0 7 -18 34 -40 60 -22 26 -40 51 -40 54 0 14 38
-14 74 -54z"/>
<path d="M8720 2936 c0 -25 12 -46 26 -46 17 0 18 32 2 48 -16 16 -28 15 -28
-2z"/>
<path d="M8850 2859 c0 -20 21 -49 35 -49 18 0 19 14 5 41 -11 20 -40 26 -40
8z"/>
<path d="M8990 2771 c0 -20 27 -48 36 -38 4 3 4 18 0 32 -7 29 -36 34 -36 6z"/>
<path d="M9124 2706 c-4 -11 1 -25 14 -39 20 -19 22 -19 28 -3 4 11 -1 25 -14
39 -20 19 -22 19 -28 3z"/>
<path d="M9260 2621 c0 -11 8 -27 18 -37 16 -17 17 -17 20 5 4 22 -13 51 -29
51 -5 0 -9 -9 -9 -19z"/>
<path d="M9547 2493 c-12 -11 -8 -48 8 -70 8 -12 45 -39 82 -61 38 -21 108
-62 157 -91 49 -29 98 -51 109 -49 14 2 -34 34 -142 97 -159 92 -191 120 -191
166 0 16 -12 20 -23 8z"/>
<path d="M9580 2484 c0 -30 64 -80 203 -159 76 -43 140 -75 143 -73 9 10 -15
56 -38 73 -35 25 -292 175 -300 175 -5 0 -8 -7 -8 -16z"/>
<path d="M10146 2115 c-6 -16 29 -63 39 -53 11 11 -3 55 -19 61 -8 3 -17 -1
-20 -8z"/>
<path d="M10280 2032 c0 -25 35 -58 45 -42 8 12 -20 60 -35 60 -6 0 -10 -8
-10 -18z"/>
<path d="M10422 1943 c4 -32 38 -46 38 -16 0 20 -18 43 -33 43 -4 0 -7 -12 -5
-27z"/>
<path d="M10550 1879 c0 -20 21 -49 35 -49 18 0 19 14 5 41 -11 20 -40 26 -40
8z"/>
<path d="M10690 1792 c0 -19 18 -42 32 -42 12 0 9 35 -4 48 -17 17 -28 15 -28
-6z"/>
<path d="M17350 8266 c-19 -7 -107 -54 -195 -105 -88 -51 -227 -132 -309 -179
-164 -94 -207 -130 -242 -206 -24 -51 -24 -52 -24 -424 l0 -374 29 -26 c48
-45 219 -143 249 -144 15 -1 44 7 63 16 36 17 37 17 85 -13 67 -41 115 -44
155 -12 22 17 24 27 24 97 l0 77 183 107 c100 58 196 119 212 135 17 16 43 54
58 85 l27 55 3 357 c3 308 1 363 -13 390 -11 24 -44 50 -124 99 -129 79 -136
82 -181 65z m124 -70 c64 -40 68 -44 48 -55 -11 -6 -26 -11 -33 -11 -10 0 -82
43 -148 86 -1 2 0 7 4 13 13 22 62 10 129 -33z m-99 -39 c39 -24 70 -48 69
-53 0 -5 -125 -81 -277 -169 -152 -88 -289 -172 -303 -186 l-26 -27 -85 51
-85 51 28 26 c16 14 130 83 254 155 124 71 250 144 280 162 30 18 60 33 65 33
6 0 42 -20 80 -43z m245 -56 c6 -13 10 -151 10 -380 0 -342 -1 -364 -20 -404
-32 -67 -80 -106 -273 -217 -120 -69 -182 -110 -190 -127 -8 -17 -8 -39 0 -76
13 -62 9 -75 -23 -83 -45 -11 -75 4 -91 46 -19 48 -32 49 -98 10 -27 -16 -62
-30 -76 -30 -54 0 -54 3 -54 394 0 346 1 363 21 406 12 25 36 60 55 79 48 47
666 401 701 401 17 0 31 -7 38 -19z m-880 -358 l78 -47 -18 -35 c-9 -20 -21
-50 -24 -68 l-7 -32 -77 48 c-75 46 -77 49 -75 84 2 35 27 97 39 97 3 0 41
-21 84 -47z m-45 -177 l70 -43 3 -208 2 -208 -22 15 c-13 8 -49 30 -80 49
l-58 34 0 202 c0 112 3 203 8 203 4 0 39 -20 77 -44z m0 -449 c65 -40 70 -46
73 -81 4 -44 8 -45 -86 14 -65 41 -72 48 -72 78 0 17 3 32 8 32 4 0 39 -20 77
-43z"/>
<path d="M9489 6001 c-30 -16 -180 -101 -334 -190 -305 -176 -340 -204 -375
-298 -20 -53 -21 -72 -18 -418 3 -332 5 -365 21 -383 33 -36 233 -152 263
-152 16 0 43 9 60 19 l31 19 54 -35 c46 -29 61 -34 97 -30 24 3 52 13 63 23
18 16 20 26 14 90 -8 85 -25 68 204 199 179 103 207 125 247 197 l29 53 3 376
c3 362 2 376 -17 401 -28 35 -233 158 -263 158 -14 0 -49 -13 -79 -29z m157
-43 c41 -24 74 -46 74 -49 0 -3 -10 -11 -23 -18 -21 -11 -32 -8 -100 34 -42
26 -77 49 -77 51 0 4 37 21 49 23 2 1 37 -18 77 -41z m-98 -40 c37 -22 72 -46
79 -52 8 -8 -59 -51 -260 -166 -149 -85 -288 -170 -309 -189 l-38 -33 -80 47
c-44 26 -80 50 -80 54 0 18 60 58 275 181 127 73 255 148 285 166 30 18 56 34
58 34 1 0 33 -19 70 -42z m252 -65 c21 -26 21 -33 18 -382 l-3 -356 -27 -50
c-37 -71 -62 -90 -260 -204 -97 -56 -182 -109 -189 -117 -7 -8 -11 -34 -10
-57 7 -105 8 -101 -23 -115 -38 -19 -72 -3 -92 43 -18 43 -34 44 -105 5 -64
-35 -73 -36 -99 -10 -19 19 -20 33 -20 383 l0 363 26 52 c33 67 52 82 235 187
85 49 206 119 269 155 151 88 230 130 246 130 7 0 22 -12 34 -27z m-838 -380
l37 -23 -19 -42 c-11 -24 -20 -51 -20 -60 0 -30 -15 -27 -93 19 -75 44 -78 47
-72 77 3 17 13 48 22 69 l16 37 46 -27 c25 -14 63 -37 83 -50z m-84 -153 l72
-42 0 -205 c0 -112 -3 -202 -7 -200 -5 2 -41 23 -80 47 l-73 42 0 205 c0 112
3 202 8 200 4 -2 40 -23 80 -47z m3 -451 c64 -38 69 -44 69 -75 0 -19 -3 -34
-7 -34 -3 0 -39 21 -80 46 -64 40 -73 49 -73 75 0 16 5 29 11 29 6 0 42 -19
80 -41z"/>
<path d="M17790 4808 c-275 -159 -506 -292 -1010 -583 -263 -151 -523 -301
-880 -507 -157 -91 -375 -217 -485 -280 -110 -63 -303 -175 -430 -248 -126
-73 -345 -199 -485 -280 -243 -140 -388 -223 -760 -438 -91 -53 -264 -152
-385 -222 -250 -144 -462 -266 -780 -450 -121 -70 -371 -214 -555 -320 -375
-216 -693 -401 -698 -405 -2 -2 0 -5 5 -8 5 -3 69 29 143 72 413 237 1103 636
1575 908 213 123 844 487 890 513 131 75 914 527 1005 580 63 37 264 153 445
257 182 105 551 317 820 473 270 155 596 343 725 418 129 74 361 208 515 297
154 89 364 210 468 269 161 93 211 128 180 125 -5 0 -141 -77 -303 -171z"/>
<path d="M18040 4901 c-119 -69 -772 -446 -1440 -831 -580 -334 -908 -523
-1145 -660 -267 -155 -616 -356 -1075 -620 -179 -103 -368 -212 -420 -242 -52
-30 -169 -98 -260 -150 -181 -104 -810 -467 -1210 -698 -140 -81 -406 -234
-590 -340 -184 -106 -375 -216 -423 -244 -49 -28 -82 -52 -74 -54 9 -2 78 32
154 76 76 44 242 139 368 212 127 73 363 209 525 303 162 93 410 236 550 317
403 232 569 328 985 568 215 124 505 292 645 372 140 81 390 225 555 320 165
95 415 239 555 320 140 81 359 207 485 280 297 171 1228 708 1605 925 251 144
280 163 280 175 0 13 5 15 -70 -29z"/>
<path d="M17885 4759 c-115 -66 -239 -138 -275 -159 -36 -21 -252 -146 -480
-277 -228 -132 -581 -336 -785 -453 -603 -348 -678 -391 -725 -418 -25 -13
-97 -55 -160 -92 -63 -37 -340 -197 -615 -355 -275 -158 -601 -347 -725 -418
-124 -71 -238 -138 -255 -147 -25 -15 -415 -239 -945 -545 -69 -39 -334 -192
-590 -340 -716 -412 -845 -487 -850 -493 -38 -39 209 99 1065 593 561 324
1135 654 1275 735 140 81 356 205 480 277 124 71 358 206 520 300 162 93 489
281 725 418 237 136 696 401 1020 588 768 442 1116 643 1353 780 169 99 212
128 185 127 -5 0 -102 -55 -218 -121z"/>
<path d="M17870 4698 c-232 -134 -625 -361 -950 -548 -102 -59 -360 -208 -575
-332 -214 -124 -464 -268 -555 -320 -91 -52 -283 -163 -427 -246 -665 -384
-801 -462 -988 -570 -222 -127 -293 -168 -805 -464 -195 -113 -429 -248 -520
-300 -91 -52 -417 -240 -725 -418 -308 -178 -600 -346 -648 -374 -49 -28 -82
-52 -74 -54 16 -3 44 12 282 150 72 41 204 118 295 170 91 52 327 189 525 303
198 115 450 260 560 323 110 63 315 181 455 262 282 163 268 155 915 528 632
363 772 444 905 522 204 118 1140 658 1990 1147 300 173 551 320 559 328 38
37 -11 13 -219 -107z"/>
<path d="M17890 4658 c-272 -159 -665 -386 -1230 -711 -162 -94 -378 -218
-480 -277 -339 -195 -513 -296 -680 -392 -227 -131 -719 -415 -990 -571 -124
-72 -355 -205 -515 -297 -159 -92 -335 -193 -390 -225 -271 -156 -1461 -843
-1500 -865 -195 -111 -372 -215 -380 -223 -31 -30 62 14 226 109 340 197 502
291 824 476 176 102 570 329 875 505 305 176 807 465 1115 643 308 177 634
366 725 418 182 105 453 262 900 519 162 93 414 239 560 323 146 84 384 222
530 305 478 275 574 332 578 344 6 19 -8 12 -168 -81z"/>
<path d="M17935 4631 c-16 -10 -104 -61 -195 -113 -91 -53 -235 -136 -320
-185 -85 -49 -276 -160 -425 -245 -148 -86 -565 -326 -925 -534 -360 -208
-799 -461 -975 -562 -559 -322 -845 -486 -1040 -599 -382 -221 -652 -377
-1235 -712 -677 -390 -923 -533 -929 -538 -2 -1 2 -3 10 -3 16 0 174 85 414
224 401 233 2149 1241 2650 1529 143 82 418 241 610 352 193 111 456 263 585
337 129 74 379 218 555 320 176 102 428 247 560 323 501 289 647 375 676 399
36 30 27 34 -16 7z"/>
</g>
</svg>
